<svg width="227" height="228" viewBox="0 0 227 228" fill="none" xmlns="http://www.w3.org/2000/svg">
<g clip-path="url(#clip0_8091_257827)">
<path d="M129.636 225.239C182.4 225.239 225.173 182.506 225.173 129.792C225.173 77.0787 182.4 34.3457 129.636 34.3457C76.8732 34.3457 34.1001 77.0787 34.1001 129.792C34.1001 182.506 76.8732 225.239 129.636 225.239Z" fill="white" stroke="#272742" stroke-miterlimit="10" stroke-linecap="round" stroke-linejoin="round"/>
<mask id="mask0_8091_257827" style="mask-type:alpha" maskUnits="userSpaceOnUse" x="33" y="-8" width="193" height="234">
<path d="M129.637 225.239C182.401 225.239 225.174 182.506 225.174 129.792C225.174 77.0786 182.401 -7.27637 129.637 -7.27637C76.8742 -7.27637 34.1011 77.0786 34.1011 129.792C34.1011 182.506 76.8742 225.239 129.637 225.239Z" fill="white" stroke="#272742" stroke-miterlimit="10" stroke-linecap="round" stroke-linejoin="round"/>
</mask>
<g mask="url(#mask0_8091_257827)">
<path d="M138.909 26.2502C138.909 26.2502 160.651 22.9192 163.208 42.1832C165.366 58.4611 142.836 70.1898 128.863 49.7615L125.863 35.4456" fill="#272742"/>
<path d="M138.909 26.2502C138.909 26.2502 160.651 22.9192 163.208 42.1832C165.366 58.4611 142.836 70.1898 128.863 49.7615L125.863 35.4456" stroke="#272742" stroke-miterlimit="10" stroke-linecap="round" stroke-linejoin="round"/>
<path d="M146.926 78.813C142.653 80.4192 138.37 82.2842 134.097 83.8904C130.622 85.2271 118.591 81.8853 118.591 81.8853C118.591 81.8853 104.683 87.9006 98.4134 92.6977C86.0047 101.915 83.0159 110.981 81.5161 122.429C79.9947 134.072 87.7743 246.95 87.7743 246.95C108.891 249.224 124.882 255.196 126.079 255.196C160.166 259.875 178.207 257.784 198.255 235.21C197.187 218.922 191.705 149.843 187.432 124.068C182.749 94.153 171.258 85.7446 146.397 78.6729" fill="#272742"/>
<path d="M146.926 78.813C142.653 80.4192 138.37 82.2842 134.097 83.8904C130.622 85.2271 118.591 81.8853 118.591 81.8853C118.591 81.8853 104.683 87.9006 98.4134 92.6977C86.0047 101.915 83.0159 110.981 81.5161 122.429C79.9947 134.072 87.7743 246.95 87.7743 246.95C108.891 249.224 124.882 255.196 126.079 255.196C160.166 259.875 178.207 257.784 198.255 235.21C197.187 218.922 191.705 149.843 187.432 124.068C182.749 94.153 171.258 85.7446 146.397 78.6729" stroke="#272742" stroke-miterlimit="10" stroke-linecap="round" stroke-linejoin="round"/>
<path d="M133.686 39.1533L146.246 78.6731C146.246 78.6731 141.865 102.314 127.535 100.88C117.479 99.6726 118.58 81.7454 118.58 81.7454C116.842 76.8081 111.361 61.8454 111.361 61.8454L133.686 39.1533Z" fill="white" stroke="#272742" stroke-miterlimit="10" stroke-linecap="round" stroke-linejoin="round"/>
<path d="M126.338 59.9811C124.331 65.7269 120.728 71.063 116.444 75.6014C114.167 69.5969 111.502 62.1155 111.502 62.1155L126.069 47.0234C126.209 51.5726 127.277 55.8415 126.338 59.9811Z" fill="#272742"/>
<path d="M95.3274 20.3203C97.302 8.27901 107.531 1.82174 120.166 2.82428C132.802 3.82683 146.387 14.7039 137.56 41.6757C128.604 68.6474 113.617 68.2054 108.621 65.7907C103.377 63.2573 100.237 56.412 97.9171 49.4481C95.5864 42.4087 93.3528 32.3617 95.3274 20.3203Z" fill="white" stroke="#272742" stroke-miterlimit="10" stroke-linecap="round" stroke-linejoin="round"/>
<path d="M115.419 50.4297C114.232 52.8336 111.502 53.2325 111.502 53.2325" stroke="#272742" stroke-miterlimit="10" stroke-linecap="round" stroke-linejoin="round"/>
<path d="M130.936 34.841C131.507 31.51 133.924 28.7611 137.248 29.3324C140.582 29.9038 142.47 34.6793 140.053 38.0104C138.219 40.8347 134.604 41.7295 134.604 41.7295" fill="white"/>
<path d="M130.936 34.841C131.507 31.51 133.924 28.7611 137.248 29.3324C140.582 29.9038 142.47 34.6793 140.053 38.0104C138.219 40.8347 134.604 41.7295 134.604 41.7295" stroke="#272742" stroke-miterlimit="10" stroke-linecap="round"/>
<path d="M136.384 34.96L133.708 38.3018" stroke="#272742" stroke-miterlimit="10" stroke-linecap="round" stroke-linejoin="round"/>
<path d="M102.797 37.429C102.764 35.0682 101.923 33.1816 100.455 33.1816C98.966 33.1816 98.2108 35.1221 98.2432 37.4829C98.2756 39.8437 99.2142 41.7302 100.585 41.7302C101.804 41.7302 102.829 39.7898 102.797 37.429Z" fill="#272742"/>
<path d="M119.48 37.429C119.448 35.0682 118.606 33.1816 117.139 33.1816C115.65 33.1816 114.894 35.1221 114.927 37.4829C114.959 39.8437 115.898 41.7302 117.268 41.7302C118.488 41.7302 119.523 39.7898 119.48 37.429Z" fill="#272742"/>
<path d="M174.972 93.3447C175.231 93.6142 185.665 103.834 200.922 141.575C208.993 161.529 215.349 183.24 219.546 199.27C222.718 211.365 213.45 222.846 200.944 222.652L146.259 222.835" fill="#272742"/>
<path d="M174.972 93.3447C175.231 93.6142 185.665 103.834 200.922 141.575C208.993 161.529 215.349 183.24 219.546 199.27C222.718 211.365 213.45 222.846 200.944 222.652L146.259 222.835" stroke="#272742" stroke-miterlimit="10" stroke-linecap="round" stroke-linejoin="round"/>
<path d="M103.658 192.791C100.184 192.123 96.58 191.594 93.0948 192.123C87.2142 193.061 81.463 196.262 76.7909 200.132C75.4529 201.329 73.8558 202.536 72.7768 204.002C72.2373 204.8 71.1691 206.406 71.0396 207.204C70.9101 208.142 72.7768 208.67 73.4458 209.069C74.2443 209.608 75.3126 209.468 75.8521 208.67C74.6544 208.94 73.7155 210.675 74.2443 211.742C74.9133 212.81 76.6506 212.939 77.8483 212.81C77.1793 213.079 77.0498 214.146 77.4491 214.815C77.8483 215.483 78.6467 215.753 79.456 215.612C80.2545 215.483 80.9235 215.214 81.7327 214.944C85.7467 213.338 90.0196 212.271 94.2925 211.602C96.429 211.333 98.5654 211.203 100.572 211.602C103.248 212.271 105.784 213.607 108.19 214.944C111.934 217.079 115.679 218.814 119.952 219.482C120.89 219.612 145.632 222.07 145.632 222.07L137.14 195.551L121.246 197.319C121.246 197.319 114.74 195.314 112.334 194.645C109.539 193.988 106.593 193.319 103.658 192.791Z" fill="white"/>
<path d="M197.482 172.891C191.871 182.905 120.634 197.458 120.634 197.458C120.634 197.458 98.3092 190.786 92.0293 192.381C85.7494 193.987 72.3803 201.727 71.8516 206.136" stroke="#272742" stroke-miterlimit="10" stroke-linecap="round" stroke-linejoin="round"/>
<path d="M183.218 184.771C160.332 190.376 120.635 198.903 120.635 198.903" stroke="white" stroke-miterlimit="10" stroke-linecap="round" stroke-linejoin="round"/>
<path d="M173.98 186.98L163.805 155.438" stroke="white" stroke-miterlimit="10" stroke-linecap="round" stroke-linejoin="round"/>
<path d="M121.972 220.615C111.948 218.48 107.135 213.08 100.456 211.883C93.9067 210.686 80.9477 215.753 78.5415 215.225C76.0058 214.686 77.2035 212.422 80.2787 210.956C83.7532 209.22 96.4532 206.019 96.4532 206.019" stroke="#272742" stroke-miterlimit="10" stroke-linecap="round" stroke-linejoin="round"/>
<path d="M218.691 189.697C222.802 204.886 224.032 217.628 205.969 222.35C185.791 224.355 134.009 220.668 122.064 218.415" stroke="white" stroke-miterlimit="10" stroke-linecap="round" stroke-linejoin="round"/>
<path d="M93.1813 196.607C93.1813 196.607 88.2933 197.19 83.0817 199.335C77.4708 201.739 71.1908 206.148 71.3203 207.215C71.5901 209.619 74.3956 208.81 76.6615 207.603" stroke="#272742" stroke-miterlimit="10" stroke-linecap="round" stroke-linejoin="round"/>
<path d="M96.1681 200.401C96.1681 200.401 83.4681 204.271 79.9937 205.738C75.9797 207.473 73.5734 209.877 74.3827 211.742C75.0517 213.079 77.3177 211.871 78.5262 211.742" stroke="#272742" stroke-miterlimit="10" stroke-linecap="round" stroke-linejoin="round"/>
<path d="M106.228 40.4365C106.228 40.4365 106.239 41.935 105.904 42.7327C105.516 43.6598 104.491 44.9749 104.696 45.5463C105.127 46.7321 107.62 46.0098 107.62 46.0098" stroke="#272742" stroke-miterlimit="10" stroke-linecap="round" stroke-linejoin="round"/>
<path d="M94.8643 27.878C94.8643 27.878 98.9213 25.6788 102.126 22.3478C104.953 19.4156 106.151 17.8633 106.151 17.8633C106.151 17.8633 108.859 21.5501 112.754 24.4391C121.538 30.9287 131.734 32.2654 131.734 32.2654" fill="white"/>
<path d="M94.8643 27.878C94.8643 27.878 98.9213 25.6788 102.126 22.3478C104.953 19.4156 106.151 17.8633 106.151 17.8633C106.151 17.8633 108.859 21.5501 112.754 24.4391C121.538 30.9287 131.734 32.2654 131.734 32.2654" stroke="#272742" stroke-miterlimit="10" stroke-linecap="round" stroke-linejoin="round"/>
<path d="M140.033 31.1654C140.033 31.1654 141.037 20.2668 138.005 14.521C135.048 8.94771 130.095 3.65468 118.01 2.73838C104.544 1.71427 97.8867 13.0333 97.8867 13.0333C97.8867 13.0333 94.2504 18.7576 94.8655 27.8775C94.8655 27.8775 97.6385 26.2281 99.6995 24.568C101.76 22.9079 106.152 17.8628 106.152 17.8628C106.152 17.8628 108.105 20.6764 111.008 23.0265C121.053 31.1654 131.746 32.265 131.746 32.265C131.746 32.265 131.444 31.3702 133.419 30.3461C138.156 27.8775 140.033 31.1654 140.033 31.1654Z" fill="#272742"/>
<path d="M96.2793 146.469L100.207 199.323" stroke="white" stroke-miterlimit="10" stroke-linecap="round" stroke-linejoin="round"/>
</g>
<path d="M20.6339 219.085H89.7989L68.2942 153.822C67.5389 151.537 65.4024 149.984 62.9961 149.984H5.58162C1.78348 149.984 -0.903314 153.693 0.283606 157.304L20.6339 219.085Z" fill="white" stroke="#272742" stroke-miterlimit="10" stroke-linecap="round" stroke-linejoin="round"/>
<path d="M26.2684 224.832H136.857C139.943 224.832 142.436 222.331 142.436 219.258V219.086H20.6899V219.258C20.6899 222.331 23.1932 224.832 26.2684 224.832Z" fill="white" stroke="#272742" stroke-miterlimit="10" stroke-linecap="round" stroke-linejoin="round"/>
<path d="M15.1709 162.975L69.0787 207.173" stroke="#272742" stroke-miterlimit="10" stroke-linecap="round" stroke-linejoin="round"/>
</g>
<defs>
<clipPath id="clip0_8091_257827">
<rect width="227" height="228" fill="white"/>
</clipPath>
</defs>
</svg>
